# xmcd
# Copyright (C) 1995-1998 Ti Kan
#
# Track frame offsets:
#       150
#       12107
#       23204
#       33982
#       46057
#       56862
#       68667
#       75897
#
# Disc length: 1250 seconds
#
# Revision: 0
# Processed by: cddbd v1.5.2PL0 Copyright (c) Steve Scherf et al.
# Submitted via: CD-Import v1.0
#
DISCID=5304e008
DTITLE=Cheekbones - It's Wrong But We Are Right
DYEAR=10
DGENRE=
TTITLE0=Sun
TTITLE1=Down At The Supermarket
TTITLE2=It's Wrong But We Are Wright
TTITLE3=Shine On
TTITLE4=City Lights
TTITLE5=Oh Girl
TTITLE6=Alright
TTITLE7=London Town
EXTD=
EXTT0=
EXTT1=
EXTT2=
EXTT3=
EXTT4=
EXTT5=
EXTT6=
EXTT7=
PLAYORDER=
